<svg width="1173" height="218" viewBox="0 0 1173 218" fill="none" xmlns="http://www.w3.org/2000/svg">
<path d="M261.037 109.5H249.866V69.5C249.866 68.7188 249.709 67.9896 249.397 67.3125C249.11 66.6354 248.707 66.0495 248.186 65.5547C247.691 65.0339 247.105 64.6302 246.428 64.3438C245.751 64.0573 245.022 63.9141 244.241 63.9141C243.459 63.9141 242.73 64.0573 242.053 64.3438C241.376 64.6302 240.777 65.0339 240.256 65.5547C239.761 66.0495 239.371 66.6354 239.084 67.3125C238.798 67.9896 238.655 68.7188 238.655 69.5V109.5H227.444V69.5C227.444 68.7188 227.301 67.9896 227.014 67.3125C226.728 66.6354 226.324 66.0495 225.803 65.5547C225.308 65.0339 224.722 64.6302 224.045 64.3438C223.368 64.0573 222.639 63.9141 221.858 63.9141C221.077 63.9141 220.347 64.0573 219.67 64.3438C218.993 64.6302 218.394 65.0339 217.873 65.5547C217.379 66.0495 216.988 66.6354 216.702 67.3125C216.415 67.9896 216.272 68.7188 216.272 69.5V109.5H205.061V69.5C205.061 67.1823 205.491 65.0078 206.35 62.9766C207.235 60.9193 208.433 59.1354 209.944 57.625C211.48 56.0885 213.264 54.8906 215.295 54.0312C217.353 53.1458 219.54 52.7031 221.858 52.7031C223.941 52.7031 225.946 53.0807 227.873 53.8359C229.801 54.5651 231.532 55.6328 233.069 57.0391C234.605 55.6328 236.324 54.5651 238.225 53.8359C240.152 53.0807 242.157 52.7031 244.241 52.7031C246.558 52.7031 248.733 53.1458 250.764 54.0312C252.821 54.8906 254.605 56.0885 256.116 57.625C257.652 59.1354 258.85 60.9193 259.709 62.9766C260.595 65.0078 261.037 67.1823 261.037 69.5V109.5ZM297.017 104.617C296.158 105.398 295.233 106.141 294.244 106.844C293.28 107.521 292.265 108.12 291.197 108.641C290.129 109.135 289.022 109.526 287.877 109.812C286.757 110.125 285.611 110.281 284.439 110.281C281.861 110.281 279.439 109.826 277.173 108.914C274.908 108.003 272.916 106.714 271.197 105.047C269.504 103.354 268.163 101.31 267.173 98.9141C266.21 96.4922 265.728 93.7839 265.728 90.7891V67.6641H276.353V90.7891C276.353 92.1953 276.561 93.4583 276.978 94.5781C277.421 95.6719 278.007 96.5964 278.736 97.3516C279.465 98.1068 280.311 98.6797 281.275 99.0703C282.265 99.4609 283.319 99.6562 284.439 99.6562C285.533 99.6562 286.561 99.4089 287.525 98.9141C288.515 98.3932 289.374 97.7161 290.103 96.8828C290.832 96.0495 291.405 95.112 291.822 94.0703C292.239 93.0026 292.447 91.9089 292.447 90.7891V67.6641H303.111V109.5H300.533L297.017 104.617ZM318.817 109.5H308.075V51.0234H318.817V109.5ZM334.445 109.5H323.781V51.0234H334.445V69.5C335.721 68.5365 337.036 67.8594 338.391 67.4688C339.745 67.0521 341.125 66.8438 342.531 66.8438C345.109 66.8438 347.531 67.3385 349.797 68.3281C352.062 69.2917 354.029 70.6328 355.695 72.3516C357.388 74.0443 358.716 76.0365 359.68 78.3281C360.669 80.5938 361.164 83.0156 361.164 85.5938V109.5H350.422V85.5938H350.5C350.5 84.5 350.292 83.4714 349.875 82.5078C349.458 81.5182 348.885 80.6589 348.156 79.9297C347.427 79.2005 346.581 78.6276 345.617 78.2109C344.654 77.7943 343.625 77.5859 342.531 77.5859C341.411 77.5859 340.357 77.7943 339.367 78.2109C338.378 78.6276 337.518 79.2005 336.789 79.9297C336.06 80.6589 335.487 81.5182 335.07 82.5078C334.654 83.4714 334.445 84.5 334.445 85.5938V109.5ZM382.222 99.2656C382.639 99.3958 383.055 99.487 383.472 99.5391C383.889 99.5651 384.305 99.5781 384.722 99.5781C385.764 99.5781 386.766 99.4349 387.73 99.1484C388.693 98.862 389.592 98.4583 390.425 97.9375C391.284 97.3906 392.04 96.7396 392.691 95.9844C393.368 95.2031 393.915 94.3438 394.331 93.4062L402.144 101.258C401.154 102.664 400.008 103.927 398.706 105.047C397.43 106.167 396.037 107.117 394.527 107.898C393.042 108.68 391.467 109.266 389.8 109.656C388.159 110.073 386.467 110.281 384.722 110.281C381.779 110.281 379.006 109.734 376.402 108.641C373.823 107.547 371.558 106.023 369.605 104.07C367.678 102.117 366.154 99.7995 365.034 97.1172C363.915 94.4089 363.355 91.4401 363.355 88.2109C363.355 84.9036 363.915 81.8828 365.034 79.1484C366.154 76.4141 367.678 74.0833 369.605 72.1562C371.558 70.2292 373.823 68.7318 376.402 67.6641C379.006 66.5964 381.779 66.0625 384.722 66.0625C386.467 66.0625 388.172 66.2708 389.839 66.6875C391.506 67.1042 393.081 67.7031 394.566 68.4844C396.076 69.2656 397.482 70.2292 398.784 71.375C400.086 72.4948 401.232 73.7578 402.222 75.1641L382.222 99.2656ZM387.691 77.2734C387.196 77.0911 386.701 76.974 386.206 76.9219C385.737 76.8698 385.243 76.8438 384.722 76.8438C383.264 76.8438 381.883 77.1172 380.581 77.6641C379.305 78.1849 378.185 78.9401 377.222 79.9297C376.284 80.9193 375.542 82.1172 374.995 83.5234C374.448 84.9036 374.175 86.4661 374.175 88.2109C374.175 88.6016 374.188 89.0443 374.214 89.5391C374.266 90.0339 374.331 90.5417 374.409 91.0625C374.514 91.5573 374.631 92.0391 374.761 92.5078C374.891 92.9766 375.06 93.3932 375.269 93.7578L387.691 77.2734ZM415.077 109.5H404.412V67.6641H406.991L410.506 72.625C412.225 71.0625 414.178 69.8646 416.366 69.0312C418.553 68.1719 420.819 67.7422 423.162 67.7422H432.577V78.3672H423.162C422.043 78.3672 420.988 78.5755 419.998 78.9922C419.009 79.4089 418.149 79.9818 417.42 80.7109C416.691 81.4401 416.118 82.2995 415.702 83.2891C415.285 84.2786 415.077 85.3333 415.077 86.4531V109.5ZM450.197 99.2656C450.614 99.3958 451.03 99.487 451.447 99.5391C451.864 99.5651 452.28 99.5781 452.697 99.5781C453.739 99.5781 454.741 99.4349 455.705 99.1484C456.668 98.862 457.567 98.4583 458.4 97.9375C459.259 97.3906 460.015 96.7396 460.666 95.9844C461.343 95.2031 461.89 94.3438 462.306 93.4062L470.119 101.258C469.129 102.664 467.983 103.927 466.681 105.047C465.405 106.167 464.012 107.117 462.502 107.898C461.017 108.68 459.442 109.266 457.775 109.656C456.134 110.073 454.442 110.281 452.697 110.281C449.754 110.281 446.981 109.734 444.377 108.641C441.798 107.547 439.533 106.023 437.58 104.07C435.653 102.117 434.129 99.7995 433.009 97.1172C431.89 94.4089 431.33 91.4401 431.33 88.2109C431.33 84.9036 431.89 81.8828 433.009 79.1484C434.129 76.4141 435.653 74.0833 437.58 72.1562C439.533 70.2292 441.798 68.7318 444.377 67.6641C446.981 66.5964 449.754 66.0625 452.697 66.0625C454.442 66.0625 456.147 66.2708 457.814 66.6875C459.481 67.1042 461.056 67.7031 462.541 68.4844C464.051 69.2656 465.457 70.2292 466.759 71.375C468.061 72.4948 469.207 73.7578 470.197 75.1641L450.197 99.2656ZM455.666 77.2734C455.171 77.0911 454.676 76.974 454.181 76.9219C453.712 76.8698 453.218 76.8438 452.697 76.8438C451.239 76.8438 449.858 77.1172 448.556 77.6641C447.28 78.1849 446.16 78.9401 445.197 79.9297C444.259 80.9193 443.517 82.1172 442.97 83.5234C442.423 84.9036 442.15 86.4661 442.15 88.2109C442.15 88.6016 442.163 89.0443 442.189 89.5391C442.241 90.0339 442.306 90.5417 442.384 91.0625C442.489 91.5573 442.606 92.0391 442.736 92.5078C442.866 92.9766 443.035 93.3932 443.244 93.7578L455.666 77.2734ZM495.356 109.5H470.981V98.875H495.356C496.085 98.875 496.71 98.6146 497.231 98.0938C497.752 97.5729 498.012 96.9479 498.012 96.2188C498.012 95.4635 497.752 94.9688 497.231 94.7344C496.71 94.5 496.085 94.3828 495.356 94.3828H484.262C482.414 94.3828 480.682 94.0312 479.067 93.3281C477.453 92.625 476.046 91.6745 474.848 90.4766C473.651 89.2526 472.7 87.8333 471.997 86.2188C471.32 84.6042 470.981 82.8724 470.981 81.0234C470.981 79.1745 471.32 77.4427 471.997 75.8281C472.7 74.2135 473.651 72.8073 474.848 71.6094C476.046 70.4115 477.453 69.474 479.067 68.7969C480.682 68.0938 482.414 67.7422 484.262 67.7422H505.864V78.3672H484.262C483.533 78.3672 482.908 78.6276 482.387 79.1484C481.867 79.6693 481.606 80.2943 481.606 81.0234C481.606 81.7786 481.867 82.4297 482.387 82.9766C482.908 83.4974 483.533 83.7578 484.262 83.7578H495.356C497.179 83.7578 498.898 84.0703 500.512 84.6953C502.127 85.2943 503.533 86.1406 504.731 87.2344C505.929 88.3281 506.88 89.6432 507.583 91.1797C508.286 92.7161 508.637 94.3958 508.637 96.2188C508.637 98.0677 508.286 99.7995 507.583 101.414C506.88 103.003 505.929 104.409 504.731 105.633C503.533 106.831 502.127 107.781 500.512 108.484C498.898 109.161 497.179 109.5 495.356 109.5ZM541.027 109.5H530.362V67.6641H532.941L536.456 71.7266C538.175 70.1641 540.115 68.9661 542.277 68.1328C544.464 67.2734 546.743 66.8438 549.112 66.8438C551.665 66.8438 554.073 67.3385 556.339 68.3281C558.605 69.2917 560.584 70.6328 562.277 72.3516C563.969 74.0443 565.297 76.0365 566.261 78.3281C567.251 80.5938 567.745 83.0156 567.745 85.5938V109.5H557.081V85.5938C557.081 84.5 556.873 83.4714 556.456 82.5078C556.04 81.5182 555.467 80.6589 554.737 79.9297C554.008 79.2005 553.162 78.6276 552.198 78.2109C551.235 77.7943 550.206 77.5859 549.112 77.5859C547.993 77.5859 546.938 77.7943 545.948 78.2109C544.959 78.6276 544.099 79.2005 543.37 79.9297C542.641 80.6589 542.068 81.5182 541.652 82.5078C541.235 83.4714 541.027 84.5 541.027 85.5938V109.5ZM612.67 109.5H610.092L605.952 103.758C604.936 104.669 603.855 105.529 602.709 106.336C601.59 107.117 600.405 107.807 599.155 108.406C597.905 108.979 596.616 109.435 595.287 109.773C593.985 110.112 592.657 110.281 591.303 110.281C588.36 110.281 585.587 109.786 582.983 108.797C580.405 107.807 578.139 106.375 576.186 104.5C574.259 102.599 572.735 100.281 571.616 97.5469C570.496 94.8125 569.936 91.7005 569.936 88.2109C569.936 84.9557 570.496 81.974 571.616 79.2656C572.735 76.5312 574.259 74.1875 576.186 72.2344C578.139 70.2812 580.405 68.7708 582.983 67.7031C585.587 66.6094 588.36 66.0625 591.303 66.0625C592.657 66.0625 593.998 66.2318 595.327 66.5703C596.655 66.9089 597.944 67.3776 599.194 67.9766C600.444 68.5755 601.629 69.2786 602.748 70.0859C603.894 70.8932 604.962 71.7656 605.952 72.7031L610.092 67.7422H612.67V109.5ZM601.928 88.2109C601.928 86.7526 601.642 85.3464 601.069 83.9922C600.522 82.612 599.767 81.401 598.803 80.3594C597.84 79.2917 596.707 78.4453 595.405 77.8203C594.129 77.1693 592.761 76.8438 591.303 76.8438C589.845 76.8438 588.465 77.0911 587.162 77.5859C585.886 78.0807 584.767 78.8099 583.803 79.7734C582.866 80.737 582.123 81.9349 581.577 83.3672C581.03 84.7734 580.756 86.388 580.756 88.2109C580.756 90.0339 581.03 91.6615 581.577 93.0938C582.123 94.5 582.866 95.6849 583.803 96.6484C584.767 97.612 585.886 98.3411 587.162 98.8359C588.465 99.3307 589.845 99.5781 591.303 99.5781C592.761 99.5781 594.129 99.2656 595.405 98.6406C596.707 97.9896 597.84 97.1432 598.803 96.1016C599.767 95.0339 600.522 93.8229 601.069 92.4688C601.642 91.0885 601.928 89.6693 601.928 88.2109Z" fill="white"/>
<path d="M676.387 109.5H637.989V53.4844H676.387V64.6953H649.2V75.9062H667.598V87.1172H649.2V98.2891H676.387V109.5ZM690.57 109.5H679.906V67.6641H682.484L686 72.625C687.719 71.0625 689.672 69.8646 691.859 69.0312C694.047 68.1719 696.312 67.7422 698.656 67.7422H708.07V78.3672H698.656C697.536 78.3672 696.482 78.5755 695.492 78.9922C694.503 79.4089 693.643 79.9818 692.914 80.7109C692.185 81.4401 691.612 82.2995 691.195 83.2891C690.779 84.2786 690.57 85.3333 690.57 86.4531V109.5ZM749.558 109.5H746.98L742.839 103.758C741.823 104.669 740.743 105.529 739.597 106.336C738.477 107.117 737.292 107.807 736.042 108.406C734.792 108.979 733.503 109.435 732.175 109.773C730.873 110.112 729.545 110.281 728.191 110.281C725.248 110.281 722.474 109.786 719.87 108.797C717.292 107.807 715.027 106.375 713.073 104.5C711.146 102.599 709.623 100.281 708.503 97.5469C707.383 94.8125 706.823 91.7005 706.823 88.2109C706.823 84.9557 707.383 81.974 708.503 79.2656C709.623 76.5312 711.146 74.1875 713.073 72.2344C715.027 70.2812 717.292 68.7708 719.87 67.7031C722.474 66.6094 725.248 66.0625 728.191 66.0625C729.545 66.0625 730.886 66.2318 732.214 66.5703C733.542 66.9089 734.831 67.3776 736.081 67.9766C737.331 68.5755 738.516 69.2786 739.636 70.0859C740.782 70.8932 741.849 71.7656 742.839 72.7031L746.98 67.7422H749.558V109.5ZM738.816 88.2109C738.816 86.7526 738.529 85.3464 737.956 83.9922C737.409 82.612 736.654 81.401 735.691 80.3594C734.727 79.2917 733.594 78.4453 732.292 77.8203C731.016 77.1693 729.649 76.8438 728.191 76.8438C726.732 76.8438 725.352 77.0911 724.05 77.5859C722.774 78.0807 721.654 78.8099 720.691 79.7734C719.753 80.737 719.011 81.9349 718.464 83.3672C717.917 84.7734 717.644 86.388 717.644 88.2109C717.644 90.0339 717.917 91.6615 718.464 93.0938C719.011 94.5 719.753 95.6849 720.691 96.6484C721.654 97.612 722.774 98.3411 724.05 98.8359C725.352 99.3307 726.732 99.5781 728.191 99.5781C729.649 99.5781 731.016 99.2656 732.292 98.6406C733.594 97.9896 734.727 97.1432 735.691 96.1016C736.654 95.0339 737.409 93.8229 737.956 92.4688C738.529 91.0885 738.816 89.6693 738.816 88.2109ZM819.759 81.4922C819.759 84.0703 819.421 86.5573 818.744 88.9531C818.093 91.3229 817.155 93.5495 815.931 95.6328C814.707 97.6901 813.249 99.5781 811.556 101.297C809.864 102.99 807.975 104.448 805.892 105.672C803.809 106.896 801.569 107.846 799.173 108.523C796.804 109.174 794.33 109.5 791.752 109.5H774.877V53.4844H791.752C794.33 53.4844 796.804 53.8229 799.173 54.5C801.569 55.151 803.809 56.0885 805.892 57.3125C807.975 58.5365 809.864 60.0078 811.556 61.7266C813.249 63.4193 814.707 65.3073 815.931 67.3906C817.155 69.4479 818.093 71.6745 818.744 74.0703C819.421 76.4401 819.759 78.9141 819.759 81.4922ZM808.548 81.4922C808.548 79.1745 808.106 77 807.22 74.9688C806.361 72.9375 805.163 71.1667 803.627 69.6562C802.116 68.1198 800.332 66.9089 798.275 66.0234C796.244 65.138 794.069 64.6953 791.752 64.6953H786.166V98.2891H791.752C794.069 98.2891 796.244 97.8594 798.275 97C800.332 96.1146 802.116 94.9167 803.627 93.4062C805.163 91.8698 806.361 90.0859 807.22 88.0547C808.106 85.9974 808.548 83.8099 808.548 81.4922ZM835.466 56.2969C835.466 57.2865 835.27 58.2109 834.88 59.0703C834.515 59.9297 834.007 60.6849 833.356 61.3359C832.705 61.9609 831.937 62.4688 831.052 62.8594C830.192 63.224 829.268 63.4062 828.278 63.4062C827.289 63.4062 826.351 63.224 825.466 62.8594C824.606 62.4688 823.851 61.9609 823.2 61.3359C822.575 60.6849 822.067 59.9297 821.677 59.0703C821.312 58.2109 821.13 57.2865 821.13 56.2969C821.13 55.3333 821.312 54.4219 821.677 53.5625C822.067 52.6771 822.575 51.9219 823.2 51.2969C823.851 50.6458 824.606 50.138 825.466 49.7734C826.351 49.3828 827.289 49.1875 828.278 49.1875C829.268 49.1875 830.192 49.3828 831.052 49.7734C831.937 50.138 832.705 50.6458 833.356 51.2969C834.007 51.9219 834.515 52.6771 834.88 53.5625C835.27 54.4219 835.466 55.3333 835.466 56.2969ZM833.63 109.5H822.888V67.6641H833.63V109.5ZM868.359 88.2109C868.359 86.7526 868.073 85.3464 867.5 83.9922C866.953 82.612 866.198 81.401 865.234 80.3594C864.271 79.2917 863.138 78.4453 861.836 77.8203C860.56 77.1693 859.193 76.8438 857.734 76.8438C856.276 76.8438 854.896 77.0911 853.594 77.5859C852.318 78.0807 851.198 78.8099 850.234 79.7734C849.297 80.737 848.555 81.9349 848.008 83.3672C847.461 84.7734 847.188 86.388 847.188 88.2109C847.188 89.9557 847.461 91.5312 848.008 92.9375C848.555 94.3177 849.297 95.5026 850.234 96.4922C851.198 97.4818 852.318 98.25 853.594 98.7969C854.896 99.3177 856.276 99.5781 857.734 99.5781C859.193 99.5781 860.56 99.2656 861.836 98.6406C863.138 97.9896 864.271 97.1432 865.234 96.1016C866.198 95.0339 866.953 93.8229 867.5 92.4688C868.073 91.0885 868.359 89.6693 868.359 88.2109ZM879.102 104.227C879.102 107.169 878.542 109.93 877.422 112.508C876.302 115.086 874.766 117.339 872.812 119.266C870.885 121.193 868.62 122.716 866.016 123.836C863.438 124.956 860.677 125.516 857.734 125.516L852.383 125.438V114.773L857.656 114.852C859.323 114.852 860.742 114.63 861.914 114.188C863.086 113.771 864.076 113.185 864.883 112.43C865.69 111.701 866.328 110.854 866.797 109.891C867.292 108.927 867.682 107.911 867.969 106.844C867.552 107.521 866.953 108.081 866.172 108.523C865.391 108.94 864.518 109.279 863.555 109.539C862.617 109.826 861.628 110.021 860.586 110.125C859.57 110.229 858.62 110.281 857.734 110.281C854.792 110.281 852.018 109.773 849.414 108.758C846.836 107.742 844.57 106.297 842.617 104.422C840.69 102.521 839.167 100.203 838.047 97.4688C836.927 94.7344 836.367 91.6484 836.367 88.2109C836.367 85.0599 836.927 82.1302 838.047 79.4219C839.167 76.7135 840.69 74.3698 842.617 72.3906C844.57 70.4115 846.836 68.862 849.414 67.7422C852.018 66.6224 854.792 66.0625 857.734 66.0625C859.089 66.0625 860.43 66.2318 861.758 66.5703C863.086 66.9089 864.375 67.3776 865.625 67.9766C866.875 68.5755 868.06 69.2786 869.18 70.0859C870.326 70.8932 871.393 71.7656 872.383 72.7031L876.523 67.7422H879.102V104.227ZM896.644 56.2969C896.644 57.2865 896.448 58.2109 896.058 59.0703C895.693 59.9297 895.185 60.6849 894.534 61.3359C893.883 61.9609 893.115 62.4688 892.23 62.8594C891.37 63.224 890.446 63.4062 889.456 63.4062C888.467 63.4062 887.529 63.224 886.644 62.8594C885.784 62.4688 885.029 61.9609 884.378 61.3359C883.753 60.6849 883.245 59.9297 882.855 59.0703C882.49 58.2109 882.308 57.2865 882.308 56.2969C882.308 55.3333 882.49 54.4219 882.855 53.5625C883.245 52.6771 883.753 51.9219 884.378 51.2969C885.029 50.6458 885.784 50.138 886.644 49.7734C887.529 49.3828 888.467 49.1875 889.456 49.1875C890.446 49.1875 891.37 49.3828 892.23 49.7734C893.115 50.138 893.883 50.6458 894.534 51.2969C895.185 51.9219 895.693 52.6771 896.058 53.5625C896.448 54.4219 896.644 55.3333 896.644 56.2969ZM894.808 109.5H884.066V67.6641H894.808V109.5ZM920.748 109.5C918.17 109.5 915.748 109.018 913.483 108.055C911.217 107.065 909.225 105.724 907.506 104.031C905.814 102.312 904.472 100.32 903.483 98.0547C902.519 95.7891 902.037 93.3672 902.037 90.7891V78.3672H896.842V67.7422H902.037V51.0234H912.662V67.7422H928.834V78.3672H912.662V90.7891C912.662 91.9089 912.871 92.9635 913.287 93.9531C913.704 94.9167 914.277 95.763 915.006 96.4922C915.735 97.2214 916.595 97.8073 917.584 98.25C918.574 98.6667 919.629 98.875 920.748 98.875H928.834V109.5H920.748ZM972.158 109.5H969.58L965.439 103.758C964.423 104.669 963.343 105.529 962.197 106.336C961.077 107.117 959.892 107.807 958.642 108.406C957.392 108.979 956.103 109.435 954.775 109.773C953.473 110.112 952.145 110.281 950.791 110.281C947.848 110.281 945.074 109.786 942.47 108.797C939.892 107.807 937.627 106.375 935.673 104.5C933.746 102.599 932.223 100.281 931.103 97.5469C929.983 94.8125 929.423 91.7005 929.423 88.2109C929.423 84.9557 929.983 81.974 931.103 79.2656C932.223 76.5312 933.746 74.1875 935.673 72.2344C937.627 70.2812 939.892 68.7708 942.47 67.7031C945.074 66.6094 947.848 66.0625 950.791 66.0625C952.145 66.0625 953.486 66.2318 954.814 66.5703C956.142 66.9089 957.431 67.3776 958.681 67.9766C959.931 68.5755 961.116 69.2786 962.236 70.0859C963.382 70.8932 964.449 71.7656 965.439 72.7031L969.58 67.7422H972.158V109.5ZM961.416 88.2109C961.416 86.7526 961.129 85.3464 960.556 83.9922C960.009 82.612 959.254 81.401 958.291 80.3594C957.327 79.2917 956.194 78.4453 954.892 77.8203C953.616 77.1693 952.249 76.8438 950.791 76.8438C949.332 76.8438 947.952 77.0911 946.65 77.5859C945.374 78.0807 944.254 78.8099 943.291 79.7734C942.353 80.737 941.611 81.9349 941.064 83.3672C940.517 84.7734 940.244 86.388 940.244 88.2109C940.244 90.0339 940.517 91.6615 941.064 93.0938C941.611 94.5 942.353 95.6849 943.291 96.6484C944.254 97.612 945.374 98.3411 946.65 98.8359C947.952 99.3307 949.332 99.5781 950.791 99.5781C952.249 99.5781 953.616 99.2656 954.892 98.6406C956.194 97.9896 957.327 97.1432 958.291 96.1016C959.254 95.0339 960.009 93.8229 960.556 92.4688C961.129 91.0885 961.416 89.6693 961.416 88.2109ZM987.864 109.5H977.122V51.0234H987.864V109.5Z" fill="url(#paint0_linear_212_5)"/>
<path d="M417.148 156.848C417.054 157.17 416.849 157.841 416.533 158.86C416.222 159.88 415.958 160.694 415.742 161.304L413.694 167.14H411.962L409.914 161.304C409.674 160.618 409.405 159.783 409.106 158.799C408.807 157.809 408.608 157.158 408.508 156.848L407.972 161.304L407.199 167.5H405.555L407.181 154.756H409.317L411.62 161.488C411.69 161.717 411.775 161.975 411.874 162.262C411.974 162.549 412.077 162.862 412.182 163.202C412.469 164.116 412.686 164.781 412.832 165.197C412.979 164.775 413.193 164.11 413.474 163.202C413.58 162.868 413.682 162.558 413.782 162.271C413.881 161.978 413.966 161.717 414.037 161.488L416.339 154.756H418.484L420.101 167.5H418.466L417.693 161.304L417.148 156.848ZM423.582 164.222C423.582 164.896 423.722 165.388 424.004 165.698C424.285 166.009 424.739 166.164 425.366 166.164C425.893 166.164 426.397 166.041 426.878 165.795C427.358 165.549 427.754 165.218 428.064 164.802V158.245H429.752V167.5H428.389L428.17 166.226C427.355 167.187 426.312 167.664 425.041 167.658C424.01 167.658 423.224 167.377 422.685 166.814C422.152 166.252 421.886 165.432 421.886 164.354V158.245H423.582V164.222ZM432.362 154H434.05V167.5H432.362V154ZM438.366 159.432C439.221 158.535 440.267 158.087 441.503 158.087C442.488 158.087 443.241 158.371 443.762 158.939C444.284 159.508 444.544 160.334 444.544 161.418V167.5H442.848V161.541C442.848 160.855 442.708 160.357 442.426 160.047C442.145 159.736 441.694 159.581 441.073 159.581C440.522 159.581 440.006 159.704 439.526 159.95C439.045 160.196 438.659 160.536 438.366 160.97V167.5H436.678V153.93H438.366V159.432ZM447.964 163.176C448.011 164.137 448.268 164.872 448.737 165.382C449.206 165.892 449.865 166.146 450.715 166.146C451.183 166.146 451.635 166.097 452.068 165.997C452.508 165.897 453.006 165.728 453.562 165.487L454.099 166.744C453.46 167.055 452.862 167.283 452.306 167.43C451.749 167.57 451.189 167.641 450.627 167.641C449.232 167.641 448.151 167.222 447.384 166.384C446.616 165.546 446.232 164.371 446.232 162.859C446.232 161.348 446.61 160.176 447.366 159.344C448.122 158.506 449.191 158.087 450.574 158.087C451.869 158.087 452.833 158.477 453.466 159.256C454.104 160.035 454.424 161.216 454.424 162.798V163.176H447.964ZM452.675 161.761C452.628 161.04 452.423 160.498 452.059 160.135C451.702 159.766 451.207 159.581 450.574 159.581C449.168 159.581 448.327 160.308 448.052 161.761H452.675ZM457.79 159.546C458.113 159.065 458.49 158.702 458.924 158.456C459.358 158.21 459.832 158.087 460.348 158.087C460.694 158.087 461.095 158.151 461.552 158.28L461.244 159.941C460.658 159.824 460.263 159.763 460.058 159.757C459.542 159.757 459.115 159.854 458.775 160.047C458.441 160.24 458.154 160.554 457.913 160.987V167.5H456.226V158.245H457.579L457.79 159.546ZM463.468 163.176C463.515 164.137 463.773 164.872 464.242 165.382C464.711 165.892 465.37 166.146 466.219 166.146C466.688 166.146 467.139 166.097 467.573 165.997C468.012 165.897 468.51 165.728 469.067 165.487L469.603 166.744C468.964 167.055 468.367 167.283 467.81 167.43C467.254 167.57 466.694 167.641 466.131 167.641C464.737 167.641 463.656 167.222 462.888 166.384C462.121 165.546 461.737 164.371 461.737 162.859C461.737 161.348 462.115 160.176 462.871 159.344C463.627 158.506 464.696 158.087 466.079 158.087C467.374 158.087 468.337 158.477 468.97 159.256C469.609 160.035 469.928 161.216 469.928 162.798V163.176H463.468ZM468.179 161.761C468.132 161.04 467.927 160.498 467.564 160.135C467.207 159.766 466.712 159.581 466.079 159.581C464.672 159.581 463.832 160.308 463.556 161.761H468.179ZM474.517 158.087C475.272 158.081 476.148 158.277 477.145 158.676L476.696 160.082C475.817 159.736 475.091 159.563 474.517 159.563C473.989 159.563 473.573 159.666 473.269 159.871C472.964 160.07 472.811 160.346 472.811 160.697C472.811 161.031 472.946 161.286 473.216 161.462C473.485 161.638 473.89 161.808 474.429 161.972C475.067 162.177 475.574 162.367 475.949 162.543C476.33 162.713 476.661 162.988 476.942 163.369C477.224 163.744 477.364 164.245 477.364 164.872C477.364 165.722 477.057 166.398 476.441 166.902C475.832 167.406 475.006 167.658 473.963 167.658C472.873 167.658 471.821 167.427 470.808 166.964L471.335 165.505C471.909 165.745 472.39 165.915 472.776 166.015C473.169 166.114 473.559 166.164 473.945 166.164C474.496 166.164 474.921 166.059 475.22 165.848C475.519 165.631 475.668 165.317 475.668 164.907C475.668 164.644 475.583 164.427 475.413 164.257C475.249 164.081 475.044 163.946 474.798 163.853C474.552 163.753 474.2 163.63 473.743 163.483C473.192 163.302 472.738 163.123 472.381 162.947C472.029 162.766 471.73 162.496 471.484 162.139C471.238 161.775 471.115 161.301 471.115 160.715C471.115 159.912 471.423 159.273 472.038 158.799C472.659 158.324 473.485 158.087 474.517 158.087ZM487.42 158.087C488.691 158.087 489.848 158.315 490.891 158.772V171.745H489.204V166.568C488.846 166.914 488.442 167.181 487.991 167.368C487.54 167.55 487.074 167.641 486.593 167.641C485.357 167.641 484.382 167.239 483.667 166.437C482.952 165.634 482.594 164.529 482.594 163.123C482.594 162.104 482.791 161.216 483.183 160.46C483.582 159.704 484.144 159.121 484.871 158.711C485.597 158.295 486.447 158.087 487.42 158.087ZM486.681 166.146C487.197 166.146 487.674 166 488.114 165.707C488.553 165.414 488.917 165.004 489.204 164.477V159.854C488.63 159.672 488.035 159.581 487.42 159.581C486.47 159.581 485.715 159.903 485.152 160.548C484.59 161.187 484.308 162.045 484.308 163.123C484.308 164.072 484.516 164.813 484.932 165.347C485.354 165.88 485.937 166.146 486.681 166.146ZM494.785 164.222C494.785 164.896 494.926 165.388 495.207 165.698C495.488 166.009 495.942 166.164 496.569 166.164C497.097 166.164 497.601 166.041 498.081 165.795C498.562 165.549 498.957 165.218 499.268 164.802V158.245H500.955V167.5H499.593L499.373 166.226C498.559 167.187 497.516 167.664 496.244 167.658C495.213 167.658 494.428 167.377 493.889 166.814C493.355 166.252 493.089 165.432 493.089 164.354V158.245H494.785V164.222ZM504.577 163.176C504.623 164.137 504.881 164.872 505.35 165.382C505.819 165.892 506.478 166.146 507.328 166.146C507.796 166.146 508.247 166.097 508.681 165.997C509.121 165.897 509.619 165.728 510.175 165.487L510.711 166.744C510.073 167.055 509.475 167.283 508.918 167.43C508.362 167.57 507.802 167.641 507.24 167.641C505.845 167.641 504.764 167.222 503.996 166.384C503.229 165.546 502.845 164.371 502.845 162.859C502.845 161.348 503.223 160.176 503.979 159.344C504.735 158.506 505.804 158.087 507.187 158.087C508.482 158.087 509.446 158.477 510.079 159.256C510.717 160.035 511.037 161.216 511.037 162.798V163.176H504.577ZM509.288 161.761C509.241 161.04 509.036 160.498 508.672 160.135C508.315 159.766 507.82 159.581 507.187 159.581C505.781 159.581 504.94 160.308 504.664 161.761H509.288ZM517.374 157.006C517.374 156.021 517.632 155.26 518.148 154.721C518.663 154.182 519.39 153.912 520.327 153.912C520.685 153.912 521.03 153.947 521.364 154.018C521.704 154.088 522.114 154.22 522.595 154.413L521.98 155.731C521.359 155.526 520.849 155.424 520.45 155.424C520.005 155.424 519.662 155.553 519.422 155.811C519.188 156.068 519.07 156.426 519.07 156.883V158.245H521.698V159.704H519.07V166.902C519.07 167.523 519.024 168.092 518.93 168.607C518.842 169.129 518.695 169.677 518.49 170.251H517.374V159.704H515.757V158.245H517.374V157.006ZM522.894 154.826H524.582V156.558H522.894V154.826ZM522.894 158.245H524.582V167.5H522.894V158.245ZM533.151 158.245V159.396L528.361 166.006H533.345V167.5H526.234V166.296L530.989 159.739H526.489V158.245H533.151ZM535.999 163.176C536.046 164.137 536.304 164.872 536.773 165.382C537.241 165.892 537.901 166.146 538.75 166.146C539.219 166.146 539.67 166.097 540.104 165.997C540.543 165.897 541.041 165.728 541.598 165.487L542.134 166.744C541.495 167.055 540.898 167.283 540.341 167.43C539.784 167.57 539.225 167.641 538.662 167.641C537.268 167.641 536.187 167.222 535.419 166.384C534.652 165.546 534.268 164.371 534.268 162.859C534.268 161.348 534.646 160.176 535.402 159.344C536.157 158.506 537.227 158.087 538.61 158.087C539.904 158.087 540.868 158.477 541.501 159.256C542.14 160.035 542.459 161.216 542.459 162.798V163.176H535.999ZM540.71 161.761C540.663 161.04 540.458 160.498 540.095 160.135C539.737 159.766 539.242 159.581 538.61 159.581C537.203 159.581 536.362 160.308 536.087 161.761H540.71ZM545.826 159.546C546.148 159.065 546.526 158.702 546.96 158.456C547.393 158.21 547.868 158.087 548.383 158.087C548.729 158.087 549.13 158.151 549.587 158.28L549.28 159.941C548.694 159.824 548.298 159.763 548.093 159.757C547.578 159.757 547.15 159.854 546.81 160.047C546.476 160.24 546.189 160.554 545.949 160.987V167.5H544.261V158.245H545.615L545.826 159.546ZM553.868 158.104C555.022 158.104 555.91 158.409 556.531 159.019C557.158 159.622 557.472 160.486 557.472 161.611V167.5H556.171L555.925 166.419C555.022 167.257 554.009 167.676 552.884 167.676C551.958 167.676 551.223 167.427 550.678 166.929C550.133 166.431 549.86 165.763 549.86 164.925C549.86 163.952 550.259 163.193 551.056 162.648C551.852 162.104 552.972 161.831 554.413 161.831H555.775V161.576C555.728 160.258 555.052 159.599 553.745 159.599C553.347 159.599 552.898 159.66 552.4 159.783C551.902 159.9 551.401 160.062 550.897 160.267L550.432 158.896C550.971 158.644 551.539 158.45 552.137 158.315C552.74 158.175 553.317 158.104 553.868 158.104ZM554.518 163.123C553.581 163.123 552.852 163.278 552.33 163.589C551.809 163.894 551.548 164.321 551.548 164.872C551.548 165.294 551.691 165.619 551.978 165.848C552.266 166.07 552.667 166.182 553.183 166.182C553.675 166.182 554.155 166.079 554.624 165.874C555.093 165.663 555.477 165.382 555.775 165.03V163.123H554.518ZM561.401 159.528C562.215 158.567 563.235 158.087 564.459 158.087C565.865 158.087 566.815 158.632 567.307 159.722C568.145 158.632 569.217 158.087 570.524 158.087C571.555 158.087 572.337 158.368 572.87 158.931C573.409 159.493 573.679 160.322 573.679 161.418V167.5H571.983V161.541C571.983 160.855 571.842 160.357 571.561 160.047C571.28 159.736 570.828 159.581 570.207 159.581C569.656 159.581 569.153 159.701 568.696 159.941C568.239 160.182 567.866 160.524 567.579 160.97C567.579 160.993 567.585 161.049 567.597 161.137C567.609 161.225 567.615 161.342 567.615 161.488V167.5H565.918V161.541C565.918 160.855 565.778 160.357 565.496 160.047C565.215 159.736 564.761 159.581 564.134 159.581C563.607 159.581 563.109 159.704 562.64 159.95C562.177 160.196 561.805 160.53 561.524 160.952V167.5H559.836V158.245H561.207L561.401 159.528ZM581.915 159.432C582.771 158.535 583.816 158.087 585.053 158.087C586.037 158.087 586.79 158.371 587.312 158.939C587.833 159.508 588.094 160.334 588.094 161.418V167.5H586.397V161.541C586.397 160.855 586.257 160.357 585.976 160.047C585.694 159.736 585.243 159.581 584.622 159.581C584.071 159.581 583.556 159.704 583.075 159.95C582.595 160.196 582.208 160.536 581.915 160.97V167.5H580.228V153.93H581.915V159.432ZM590.485 154.826H592.172V156.558H590.485V154.826ZM590.485 158.245H592.172V167.5H590.485V158.245ZM597.552 158.087C598.307 158.081 599.183 158.277 600.179 158.676L599.731 160.082C598.852 159.736 598.126 159.563 597.552 159.563C597.024 159.563 596.608 159.666 596.303 159.871C595.999 160.07 595.846 160.346 595.846 160.697C595.846 161.031 595.981 161.286 596.251 161.462C596.52 161.638 596.925 161.808 597.464 161.972C598.102 162.177 598.609 162.367 598.984 162.543C599.365 162.713 599.696 162.988 599.977 163.369C600.259 163.744 600.399 164.245 600.399 164.872C600.399 165.722 600.092 166.398 599.476 166.902C598.867 167.406 598.041 167.658 596.998 167.658C595.908 167.658 594.856 167.427 593.843 166.964L594.37 165.505C594.944 165.745 595.425 165.915 595.811 166.015C596.204 166.114 596.594 166.164 596.98 166.164C597.531 166.164 597.956 166.059 598.255 165.848C598.553 165.631 598.703 165.317 598.703 164.907C598.703 164.644 598.618 164.427 598.448 164.257C598.284 164.081 598.079 163.946 597.833 163.853C597.587 163.753 597.235 163.63 596.778 163.483C596.227 163.302 595.773 163.123 595.416 162.947C595.064 162.766 594.765 162.496 594.519 162.139C594.273 161.775 594.15 161.301 594.15 160.715C594.15 159.912 594.458 159.273 595.073 158.799C595.694 158.324 596.52 158.087 597.552 158.087ZM607.264 167.192C606.566 167.468 605.919 167.605 605.321 167.605C604.431 167.605 603.751 167.377 603.282 166.92C602.819 166.457 602.588 165.78 602.588 164.89V159.704H600.971V158.245H602.676L603.036 155.6H604.284V158.245H607.106V159.704H604.284V164.617C604.284 165.145 604.387 165.522 604.592 165.751C604.803 165.979 605.148 166.094 605.629 166.094C606.051 166.094 606.49 166.018 606.947 165.865L607.264 167.192ZM611.615 156.681L614.014 153.728L615.095 154.844L612.283 157.296L611.615 156.681ZM612.485 158.069C613.873 158.069 614.952 158.491 615.719 159.335C616.487 160.173 616.871 161.348 616.871 162.859C616.871 164.371 616.487 165.546 615.719 166.384C614.952 167.222 613.873 167.641 612.485 167.641C611.09 167.641 610.009 167.222 609.242 166.384C608.474 165.546 608.09 164.371 608.09 162.859C608.09 161.348 608.474 160.173 609.242 159.335C610.009 158.491 611.09 158.069 612.485 158.069ZM612.485 159.563C611.618 159.563 610.956 159.845 610.498 160.407C610.047 160.97 609.822 161.787 609.822 162.859C609.822 163.926 610.047 164.74 610.498 165.303C610.956 165.865 611.618 166.146 612.485 166.146C613.346 166.146 614.005 165.865 614.462 165.303C614.919 164.74 615.148 163.926 615.148 162.859C615.148 161.793 614.919 160.979 614.462 160.416C614.005 159.848 613.346 159.563 612.485 159.563ZM620.334 159.546C620.656 159.065 621.034 158.702 621.468 158.456C621.901 158.21 622.376 158.087 622.891 158.087C623.237 158.087 623.638 158.151 624.096 158.28L623.788 159.941C623.202 159.824 622.806 159.763 622.601 159.757C622.086 159.757 621.658 159.854 621.318 160.047C620.984 160.24 620.697 160.554 620.457 160.987V167.5H618.769V158.245H620.123L620.334 159.546ZM625.265 154.826H626.952V156.558H625.265V154.826ZM625.265 158.245H626.952V167.5H625.265V158.245ZM632.657 158.104C633.811 158.104 634.699 158.409 635.32 159.019C635.947 159.622 636.26 160.486 636.26 161.611V167.5H634.959L634.713 166.419C633.811 167.257 632.797 167.676 631.672 167.676C630.747 167.676 630.011 167.427 629.466 166.929C628.921 166.431 628.649 165.763 628.649 164.925C628.649 163.952 629.047 163.193 629.844 162.648C630.641 162.104 631.76 161.831 633.202 161.831H634.564V161.576C634.517 160.258 633.84 159.599 632.534 159.599C632.135 159.599 631.687 159.66 631.189 159.783C630.691 159.9 630.19 160.062 629.686 160.267L629.22 158.896C629.759 158.644 630.328 158.45 630.925 158.315C631.529 158.175 632.106 158.104 632.657 158.104ZM633.307 163.123C632.37 163.123 631.64 163.278 631.119 163.589C630.597 163.894 630.336 164.321 630.336 164.872C630.336 165.294 630.48 165.619 630.767 165.848C631.054 166.07 631.456 166.182 631.971 166.182C632.463 166.182 632.944 166.079 633.413 165.874C633.881 165.663 634.265 165.382 634.564 165.03V163.123H633.307ZM644.329 159.546C644.775 159.054 645.264 158.688 645.797 158.447C646.33 158.207 646.928 158.087 647.59 158.087C648.574 158.087 649.327 158.371 649.849 158.939C650.37 159.508 650.631 160.334 650.631 161.418V167.5H648.935V161.541C648.935 160.855 648.794 160.357 648.513 160.047C648.232 159.736 647.781 159.581 647.159 159.581C646.609 159.581 646.093 159.704 645.613 159.95C645.132 160.196 644.745 160.536 644.452 160.97V167.5H642.765V158.245H644.136L644.329 159.546ZM656.133 158.104C657.288 158.104 658.175 158.409 658.797 159.019C659.423 159.622 659.737 160.486 659.737 161.611V167.5H658.436L658.19 166.419C657.288 167.257 656.274 167.676 655.149 167.676C654.223 167.676 653.488 167.427 652.943 166.929C652.398 166.431 652.126 165.763 652.126 164.925C652.126 163.952 652.524 163.193 653.321 162.648C654.118 162.104 655.237 161.831 656.678 161.831H658.041V161.576C657.994 160.258 657.317 159.599 656.01 159.599C655.612 159.599 655.164 159.66 654.666 159.783C654.168 159.9 653.667 160.062 653.163 160.267L652.697 158.896C653.236 158.644 653.804 158.45 654.402 158.315C655.005 158.175 655.583 158.104 656.133 158.104ZM656.784 163.123C655.846 163.123 655.117 163.278 654.595 163.589C654.074 163.894 653.813 164.321 653.813 164.872C653.813 165.294 653.957 165.619 654.244 165.848C654.531 166.07 654.932 166.182 655.448 166.182C655.94 166.182 656.421 166.079 656.889 165.874C657.358 165.663 657.742 165.382 658.041 165.03V163.123H656.784ZM671.313 167.192C670.616 167.468 669.968 167.605 669.37 167.605C668.48 167.605 667.8 167.377 667.331 166.92C666.868 166.457 666.637 165.78 666.637 164.89V159.704H665.02V158.245H666.725L667.085 155.6H668.333V158.245H671.155V159.704H668.333V164.617C668.333 165.145 668.436 165.522 668.641 165.751C668.852 165.979 669.198 166.094 669.678 166.094C670.1 166.094 670.539 166.018 670.996 165.865L671.313 167.192ZM673.871 163.176C673.918 164.137 674.175 164.872 674.644 165.382C675.113 165.892 675.772 166.146 676.622 166.146C677.091 166.146 677.542 166.097 677.975 165.997C678.415 165.897 678.913 165.728 679.469 165.487L680.006 166.744C679.367 167.055 678.769 167.283 678.213 167.43C677.656 167.57 677.096 167.641 676.534 167.641C675.139 167.641 674.058 167.222 673.291 166.384C672.523 165.546 672.139 164.371 672.139 162.859C672.139 161.348 672.517 160.176 673.273 159.344C674.029 158.506 675.098 158.087 676.481 158.087C677.776 158.087 678.74 158.477 679.373 159.256C680.011 160.035 680.331 161.216 680.331 162.798V163.176H673.871ZM678.582 161.761C678.535 161.04 678.33 160.498 677.966 160.135C677.609 159.766 677.114 159.581 676.481 159.581C675.075 159.581 674.234 160.308 673.959 161.761H678.582ZM685.859 158.087C686.826 158.087 687.755 158.345 688.646 158.86L688.057 160.214C687.301 159.792 686.568 159.581 685.859 159.581C684.998 159.581 684.333 159.865 683.864 160.434C683.396 161.002 683.161 161.811 683.161 162.859C683.161 163.914 683.401 164.72 683.882 165.276C684.362 165.833 685.057 166.111 685.965 166.111C686.299 166.111 686.674 166.062 687.09 165.962C687.506 165.856 687.904 165.722 688.285 165.558L688.742 166.902C688.285 167.119 687.793 167.292 687.266 167.421C686.738 167.544 686.24 167.605 685.771 167.605C684.389 167.605 683.319 167.192 682.563 166.366C681.808 165.54 681.43 164.371 681.43 162.859C681.43 161.359 681.819 160.19 682.599 159.353C683.378 158.509 684.465 158.087 685.859 158.087ZM691.792 159.546C692.238 159.054 692.727 158.688 693.26 158.447C693.793 158.207 694.391 158.087 695.053 158.087C696.037 158.087 696.79 158.371 697.312 158.939C697.833 159.508 698.094 160.334 698.094 161.418V167.5H696.398V161.541C696.398 160.855 696.257 160.357 695.976 160.047C695.695 159.736 695.244 159.581 694.622 159.581C694.072 159.581 693.556 159.704 693.076 159.95C692.595 160.196 692.208 160.536 691.915 160.97V167.5H690.228V158.245H691.599L691.792 159.546ZM704.177 158.069C705.565 158.069 706.643 158.491 707.411 159.335C708.178 160.173 708.562 161.348 708.562 162.859C708.562 164.371 708.178 165.546 707.411 166.384C706.643 167.222 705.565 167.641 704.177 167.641C702.782 167.641 701.701 167.222 700.933 166.384C700.166 165.546 699.782 164.371 699.782 162.859C699.782 161.348 700.166 160.173 700.933 159.335C701.701 158.491 702.782 158.069 704.177 158.069ZM704.177 159.563C703.309 159.563 702.647 159.845 702.19 160.407C701.739 160.97 701.513 161.787 701.513 162.859C701.513 163.926 701.739 164.74 702.19 165.303C702.647 165.865 703.309 166.146 704.177 166.146C705.038 166.146 705.697 165.865 706.154 165.303C706.611 164.74 706.84 163.926 706.84 162.859C706.84 161.793 706.611 160.979 706.154 160.416C705.697 159.848 705.038 159.563 704.177 159.563ZM710.479 154H712.166V167.5H710.479V154ZM718.468 158.069C719.857 158.069 720.935 158.491 721.703 159.335C722.47 160.173 722.854 161.348 722.854 162.859C722.854 164.371 722.47 165.546 721.703 166.384C720.935 167.222 719.857 167.641 718.468 167.641C717.074 167.641 715.993 167.222 715.225 166.384C714.458 165.546 714.074 164.371 714.074 162.859C714.074 161.348 714.458 160.173 715.225 159.335C715.993 158.491 717.074 158.069 718.468 158.069ZM718.468 159.563C717.601 159.563 716.939 159.845 716.482 160.407C716.031 160.97 715.805 161.787 715.805 162.859C715.805 163.926 716.031 164.74 716.482 165.303C716.939 165.865 717.601 166.146 718.468 166.146C719.33 166.146 719.989 165.865 720.446 165.303C720.903 164.74 721.131 163.926 721.131 162.859C721.131 161.793 720.903 160.979 720.446 160.416C719.989 159.848 719.33 159.563 718.468 159.563ZM728.673 158.175C729.083 158.175 729.475 158.233 729.85 158.351C730.231 158.462 730.565 158.62 730.852 158.825L731.055 158.245H732.452V167.755C732.452 168.991 732.057 169.964 731.266 170.673C730.474 171.388 729.396 171.745 728.031 171.745C727.346 171.745 726.681 171.66 726.036 171.49C725.397 171.326 724.832 171.095 724.34 170.796L724.973 169.442C725.406 169.683 725.913 169.876 726.493 170.022C727.073 170.175 727.621 170.251 728.137 170.251C728.974 170.251 729.622 170.037 730.079 169.609C730.536 169.188 730.765 168.581 730.765 167.79V166.454C730.032 167.245 729.15 167.641 728.119 167.641C726.824 167.641 725.822 167.239 725.113 166.437C724.404 165.634 724.05 164.494 724.05 163.018C724.05 161.482 724.451 160.293 725.254 159.449C726.057 158.6 727.196 158.175 728.673 158.175ZM728.769 159.581C727.844 159.581 727.114 159.889 726.581 160.504C726.048 161.113 725.781 161.951 725.781 163.018C725.781 164.014 725.992 164.784 726.414 165.329C726.842 165.874 727.445 166.146 728.224 166.146C728.822 166.146 729.347 165.982 729.798 165.654C730.249 165.326 730.571 164.872 730.765 164.292V160.117C730.489 159.947 730.173 159.815 729.815 159.722C729.464 159.628 729.115 159.581 728.769 159.581ZM735.063 154.826H736.75V156.558H735.063V154.826ZM735.063 158.245H736.75V167.5H735.063V158.245ZM742.455 158.104C743.609 158.104 744.497 158.409 745.118 159.019C745.745 159.622 746.058 160.486 746.058 161.611V167.5H744.757L744.511 166.419C743.609 167.257 742.595 167.676 741.47 167.676C740.544 167.676 739.809 167.427 739.264 166.929C738.719 166.431 738.447 165.763 738.447 164.925C738.447 163.952 738.845 163.193 739.642 162.648C740.439 162.104 741.558 161.831 743 161.831H744.362V161.576C744.315 160.258 743.638 159.599 742.332 159.599C741.933 159.599 741.485 159.66 740.987 159.783C740.489 159.9 739.988 160.062 739.484 160.267L739.018 158.896C739.557 158.644 740.126 158.45 740.723 158.315C741.327 158.175 741.904 158.104 742.455 158.104ZM743.105 163.123C742.168 163.123 741.438 163.278 740.917 163.589C740.395 163.894 740.134 164.321 740.134 164.872C740.134 165.294 740.278 165.619 740.565 165.848C740.852 166.07 741.253 166.182 741.769 166.182C742.261 166.182 742.742 166.079 743.211 165.874C743.679 165.663 744.063 165.382 744.362 165.03V163.123H743.105Z" fill="white"/>
<defs>
<linearGradient id="paint0_linear_212_5" x1="794" y1="73.0001" x2="1054" y2="80.5" gradientUnits="userSpaceOnUse">
<stop stop-color="#FCC44F"/>
<stop offset="1" stop-color="#AD00FF"/>
</linearGradient>
</defs>
</svg>
